<?xml version="1.0" encoding="iso-8859-1"?>
<!-- Generator: Adobe Illustrator 19.0.0, SVG Export Plug-In . SVG Version: 6.00 Build 0)  -->
<svg version="1.1" id="Layer_1" xmlns="http://www.w3.org/2000/svg" xmlns:xlink="http://www.w3.org/1999/xlink" x="0px" y="0px"
	 viewBox="0 0 512 512" style="enable-background:new 0 0 512 512;" xml:space="preserve">
<polygon style="fill:#965353;" points="9.328,324.344 49.328,488.016 460,488.016 504,333.516 "/>
<rect x="200" y="330.67" style="fill:#A9B1BC;" width="109.33" height="100"/>
<path style="fill:#424953;" d="M276,367.688c0,10.125-8.203,18.328-18.344,18.328c-10.125,0-18.328-8.203-18.328-18.328
	c0-10.141,8.203-18.344,18.328-18.344C267.797,349.344,276,357.547,276,367.688z"/>
<polygon style="fill:#965353;" points="480,57.359 436,30.688 140.672,28.016 68,28.016 28,82.688 9.328,166.688 74.672,166.688 
	345.328,166.688 495.328,160.016 501.328,130.688 "/>
<rect x="206.5" y="122.84" style="fill:#A9B1BC;" width="99.5" height="36"/>
<g>
	<polygon style="fill:#602D2D;" points="20.672,164.016 46.672,216.016 359.344,216.016 469.344,216.016 495.344,166.688 	"/>
	<polygon style="fill:#602D2D;" points="17.984,333.516 43.984,204.844 356.656,204.844 466.656,204.844 492.656,326.891 	"/>
</g>
<polygon style="fill:#FECD57;" points="379,287.844 372.5,266.344 349,253.844 337,237.344 309.5,225.344 294.5,215.344 
	281.5,202.344 239,196.344 216.5,203.844 203,224.844 171,238.844 167,256 138,260.344 128.5,276.344 120.5,298.844 96.5,302.844 
	74,324.344 424.5,320.344 424.5,305.844 "/>
<path d="M474.156,222.406l37.781-57.109c0,0,4.797-141.953-85.328-149.328H256.031h-0.063H85.391
	C-4.719,23.344,0.063,165.297,0.063,165.297L38,221.875L0,325.25l42.672,170.719l426.656,0.063L512,325.313L474.156,222.406z
	 M485.313,314.531h-48.047c-1.172-14.578-20.844-26.438-46.125-28.344c2.063-3.203,3.203-6.656,3.203-10.281
	c0-14.5-18.328-26.625-42.688-29.391c0.016-0.203,0.031-0.391,0.031-0.594c0-6.156-3.313-11.875-8.969-16.641l111.234,0.016
	l0.188,0.484L485.313,314.531z M213.031,335.844h85.328v85.406H256h-42.969V335.844z M309.703,314.516
	c-0.219-0.016-0.453-0.031-0.688-0.031h-39.531c1.313-0.891,3.063-1.891,5.375-2.891c6.594-2.813,15.063-4.344,23.813-4.344
	c8.734,0,17.188,1.531,23.797,4.344c2.344,1,4.109,2.031,5.422,2.938L309.703,314.516z M298.359,254.594
	c-8.75,0-17.203-1.563-23.813-4.375c-3.656-1.563-5.938-3.156-7.188-4.297c0.281-0.266,0.641-0.547,1.047-0.859
	c9.328-1.281,17.688-3.953,24.359-7.594c1.844-0.125,3.719-0.219,5.594-0.219c8.75,0,17.203,1.563,23.813,4.375
	c3.641,1.547,5.922,3.156,7.188,4.297c-1.266,1.141-3.547,2.734-7.188,4.297C315.563,253.031,307.109,254.594,298.359,254.594z
	 M285.641,275.047c0.406,0.313,0.766,0.609,1.063,0.859c-1.281,1.156-3.547,2.75-7.203,4.313
	c-6.609,2.813-15.047,4.359-23.797,4.359s-17.219-1.547-23.813-4.359c-3.656-1.563-5.938-3.156-7.203-4.313
	c0.297-0.25,0.641-0.547,1.047-0.859c9.344-1.281,17.688-3.953,24.375-7.578c1.844-0.141,3.703-0.219,5.594-0.219
	c1.875,0,3.75,0.078,5.578,0.219C267.953,271.094,276.328,273.766,285.641,275.047z M236.844,250.219
	c-6.609,2.813-15.063,4.375-23.813,4.375s-17.203-1.563-23.797-4.375c-3.656-1.563-5.938-3.156-7.219-4.297
	c1.281-1.141,3.563-2.75,7.219-4.297c6.594-2.813,15.063-4.375,23.797-4.375c1.891,0,3.75,0.094,5.578,0.219
	c6.688,3.641,15.047,6.313,24.375,7.594c0.406,0.313,0.766,0.594,1.063,0.859C242.766,247.063,240.484,248.656,236.844,250.219z
	 M213.328,307.25c8.75,0,17.219,1.531,23.813,4.344c2.313,1,4.063,2,5.375,2.891H202.36c-0.141,0-0.281,0.016-0.438,0.016h-17.781
	c1.297-0.906,3.063-1.906,5.391-2.906C196.141,308.781,204.594,307.25,213.328,307.25z M354.75,314.531
	c1.313-0.906,3.078-1.938,5.422-2.938c6.609-2.813,15.063-4.344,23.813-4.344s17.203,1.531,23.813,4.344
	c2.344,1,4.125,2.031,5.438,2.938H354.75z M364.828,280.219c-6.609,2.813-15.063,4.359-23.813,4.359s-17.203-1.547-23.813-4.359
	c-3.641-1.563-5.922-3.156-7.188-4.313c0.281-0.25,0.641-0.547,1.063-0.859c9.313-1.281,17.672-3.953,24.359-7.578
	c1.828-0.141,3.703-0.219,5.578-0.219c8.75,0,17.203,1.547,23.813,4.359c3.656,1.547,5.938,3.172,7.203,4.297
	C370.766,277.063,368.484,278.656,364.828,280.219z M279.5,220.219c-6.609,2.813-15.047,4.375-23.797,4.375
	s-17.219-1.563-23.813-4.375c-3.656-1.547-5.938-3.156-7.203-4.281c1.266-1.156,3.547-2.75,7.203-4.313
	c6.594-2.813,15.063-4.359,23.813-4.359s17.188,1.547,23.797,4.359c3.656,1.563,5.922,3.156,7.203,4.313
	C285.422,217.063,283.156,218.672,279.5,220.219z M175.953,267.469c6.688,3.625,15.047,6.297,24.375,7.578
	c0.406,0.313,0.75,0.609,1.063,0.859c-1.281,1.156-3.563,2.75-7.219,4.313c-6.594,2.813-15.063,4.359-23.797,4.359
	c-8.75,0-17.203-1.547-23.813-4.359c-3.641-1.563-5.922-3.156-7.203-4.313c1.281-1.125,3.563-2.75,7.203-4.297
	c6.609-2.813,15.063-4.359,23.813-4.359C172.25,267.25,174.109,267.328,175.953,267.469z M151.828,311.594
	c2.313,1,4.094,2,5.391,2.906H98.828c1.297-0.906,3.063-1.906,5.375-2.906c6.609-2.813,15.063-4.344,23.813-4.344
	S145.219,308.781,151.828,311.594z M191.703,335.844v96.063c0,5.906,4.781,10.672,10.656,10.672h106.656
	c5.906,0,10.672-4.766,10.672-10.672v-96.063l114.422,0.031L399.39,474.688l-287.344-0.047L77.391,335.813L191.703,335.844z
	 M50.266,56.25c9.688-11.375,21.5-17.563,36.063-18.938H255.97h0.063h169.641c14.469,1.359,26.188,7.469,35.828,18.672
	c8.75,10.172,15.75,24.391,20.797,42.297c6.172,21.969,7.813,44.031,8.219,56.359l-170.828-0.016v-32
	c0-5.906-4.766-10.672-10.672-10.672H202.359c-5.875,0-10.656,4.766-10.656,10.672v31.984l-170.234-0.016
	c0.391-12.141,1.984-33.688,8.016-55.516C34.5,80.969,41.484,66.563,50.266,56.25z M213.031,154.609v-21.328h85.328v21.344h-39
	L213.031,154.609z M32.859,175.922l446.438,0.047l-21.156,32l-151.031-0.031c-6.219-12.688-26.875-22-51.406-22
	s-45.188,9.313-51.406,22l-149.969-0.031L32.859,175.922z M58.016,229.25h110.688c-5.688,4.781-9,10.5-9,16.672
	c0,0.203,0.031,0.391,0.031,0.594c-24.359,2.766-42.688,14.891-42.688,29.391c0,3.625,1.141,7.109,3.234,10.313
	c-24.984,2.063-44.344,13.828-45.547,28.281l-48.047-0.016L58.016,229.25z M24.625,335.813h30.781l34.641,138.828l-30.719-0.016
	L24.625,335.813z M452.672,474.688h-31.313l34.734-138.813h31.281L452.672,474.688z"/>
<path d="M266.672,410.594c0-0.875-0.125-1.703-0.313-2.5v-9.906C278.953,393.891,288,381.969,288,367.922
	c0-17.672-14.328-31.984-32-31.984s-32,14.313-32,31.984c0,13.828,8.766,25.578,21.031,30.078v12.594h0.297
	c0,5.875,4.781,10.656,10.672,10.656S266.672,416.469,266.672,410.594z M256,357.25c5.891,0,10.672,4.781,10.672,10.672
	s-4.781,10.672-10.672,10.672s-10.672-4.781-10.672-10.672S250.109,357.25,256,357.25z"/>
<g>
</g>
<g>
</g>
<g>
</g>
<g>
</g>
<g>
</g>
<g>
</g>
<g>
</g>
<g>
</g>
<g>
</g>
<g>
</g>
<g>
</g>
<g>
</g>
<g>
</g>
<g>
</g>
<g>
</g>
</svg>
